<?xml version="1.0" encoding="utf-8"?>
<!-- Generator: Adobe Illustrator 21.0.0, SVG Export Plug-In . SVG Version: 6.00 Build 0)  -->
<svg version="1.1" id="Layer_1" xmlns="http://www.w3.org/2000/svg" xmlns:xlink="http://www.w3.org/1999/xlink" x="0px" y="0px"
	 viewBox="0 0 166 50" style="enable-background:new 0 0 166 50;" xml:space="preserve">
<style type="text/css">
	.st0{fill:#FFFFFF;}
	.st1{fill:#F05323;}
	.st2{fill-rule:evenodd;clip-rule:evenodd;fill:#FFFFFF;}
</style>
<rect class="st0" width="42.3" height="49.9"/>
<rect x="0" y="4.3" class="st1" width="2.7" height="11.8"/>
<rect x="0" y="17.1" class="st1" width="2.7" height="28.2"/>
<rect x="0" y="0" class="st1" width="2.7" height="3.4"/>
<rect x="3.6" y="0" class="st1" width="38.6" height="49.9"/>
<rect x="0" y="46.2" class="st1" width="2.7" height="3.7"/>
<path class="st2" d="M20.2,7.2c-1.4,12.9-0.8,28.7-0.8,28.7c4.5,0.2,10.1-2.5,9.6-7.3c-0.4-5.1-8-5.1-8-6.4c-0.1-1.9,8-3.3,6.9-9.8
	C27.3,8.2,23.9,7.1,20.2,7.2 M9.8,5.4c0,1.2-0.3,2-0.3,2c1.4,0.2,3.4,0,3.4,0c0.8,8-0.4,28.6-0.4,28.6H10l-0.3,1.8
	c4.3,0.3,9.3,0.5,15.3-0.3c5.7-0.7,11.9-5.6,10.9-11.2c-0.7-3.9-3.6-5.8-7.3-6.3c3.8-1.7,7.6-5.8,6.2-10.3c-1.3-4.2-5.9-5.5-10-5.1
	C21.2,5.1,20.9,4.6,9.8,5.4"/>
<path class="st0" d="M17.5,42.1C17.5,42.1,17.5,42.1,17.5,42.1l0,4c0,0.2,0,0.3,0.1,0.3c0.1,0,0.3,0.1,0.5,0.1v0.1h-1.9v-0.1
	c0.3,0,0.4-0.1,0.5-0.1c0.1-0.1,0.1-0.2,0.1-0.4V43c0-0.1,0-0.2,0-0.2c0-0.1-0.1-0.1-0.2-0.1c-0.1,0-0.1,0-0.2,0
	c-0.1,0-0.2,0.1-0.3,0.1v-0.1L17.5,42.1L17.5,42.1C17.5,42.1,17.5,42.1,17.5,42.1"/>
<path class="st0" d="M21.4,42.1v0.1L20,46.7h-0.4l1.3-4h-1.4c-0.2,0-0.4,0-0.5,0.1c-0.1,0.1-0.2,0.2-0.4,0.4l-0.1-0.1
	c0.1-0.4,0.2-0.6,0.3-0.7c0-0.1,0.1-0.2,0.1-0.3H21.4z"/>
<path class="st0" d="M22.7,46.2c0.2,0.1,0.4,0.2,0.5,0.2c0.3,0,0.5-0.1,0.7-0.3c0.2-0.2,0.2-0.4,0.2-0.7c0-0.2-0.1-0.4-0.2-0.6
	c-0.2-0.3-0.5-0.5-1-0.5c0,0-0.1,0-0.1,0c0,0-0.1,0-0.1,0l0-0.1c0.4-0.1,0.6-0.3,0.8-0.4c0.2-0.2,0.3-0.4,0.3-0.7
	c0-0.2-0.1-0.4-0.2-0.5c-0.2-0.1-0.3-0.2-0.5-0.2c-0.2,0-0.5,0.1-0.6,0.3c-0.1,0.1-0.2,0.2-0.3,0.5l-0.1,0c0.1-0.3,0.3-0.6,0.5-0.8
	c0.2-0.2,0.5-0.3,0.8-0.3c0.3,0,0.6,0.1,0.8,0.3c0.2,0.2,0.3,0.4,0.3,0.6c0,0.2-0.1,0.4-0.2,0.6c-0.1,0.1-0.2,0.2-0.4,0.3
	c0.2,0.1,0.4,0.2,0.5,0.3c0.2,0.2,0.4,0.5,0.4,0.9c0,0.4-0.2,0.8-0.5,1.1c-0.3,0.3-0.8,0.5-1.4,0.5c-0.3,0-0.5,0-0.6-0.1
	c-0.1-0.1-0.2-0.2-0.2-0.3c0-0.1,0-0.1,0.1-0.2c0-0.1,0.1-0.1,0.2-0.1C22.4,46,22.5,46.1,22.7,46.2"/>
<path class="st0" d="M25.3,46.5c0.8-0.8,1.4-1.4,1.6-1.8c0.3-0.4,0.4-0.8,0.4-1.1c0-0.3-0.1-0.6-0.3-0.7c-0.2-0.2-0.4-0.3-0.6-0.3
	c-0.3,0-0.5,0.1-0.7,0.3c-0.1,0.1-0.2,0.3-0.3,0.6l-0.1,0c0.1-0.5,0.3-0.9,0.6-1.1c0.3-0.2,0.5-0.3,0.8-0.3c0.4,0,0.7,0.1,0.9,0.3
	c0.2,0.2,0.3,0.5,0.3,0.9c0,0.4-0.1,0.7-0.4,1c-0.3,0.3-0.8,0.9-1.6,1.8h1.5c0.2,0,0.4,0,0.4-0.1c0.1,0,0.2-0.2,0.3-0.4l0.1,0
	L28,46.6L25.3,46.5L25.3,46.5z"/>
<g>
	<path d="M52,25.4v-0.5h1.8V10.7H52v-0.5h5.9c4.5,0,5.4,2.2,5.4,3.6c0,2.3-2,3.3-3.9,3.5v0c3,0.3,4.4,2.4,4.4,3.8
		c0,1.7-1,4.2-5.9,4.2H52z M56,17.2h2c2.3,0,2.9-0.9,2.9-3.3c0-2.1-0.8-3.1-3.1-3.1H56V17.2z M56,24.9h1.9c2.6,0,3.3-0.9,3.3-3.8
		c0-2.9-1.4-3.4-4.1-3.4H56V24.9z"/>
	<path d="M65.5,25.4v-0.5h2V10.7h-2v-0.5H77v3.7h-0.5c-0.4-2.7-1.8-3.2-3.9-3.2h-3v6.6c2.3,0,3,0,3.3-2.4h0.5v5.8H73
		c-0.1-2.4-1.1-2.7-3.3-2.8v7h2.8c3,0,4-0.4,4.6-3.7h0.6l-0.3,4.3H65.5z"/>
	<path d="M79.6,25.4v-0.5h1.8V10.7h-1.8v-0.5h6.7c4.4,0,5,2.3,5,3.3c0,3-2.6,3.5-4.8,3.7v0c2.6,0.7,4.4,1.6,4.2,5.2
		c-0.1,1.1,0.1,2.1,0.6,2.3c0.4,0.3,1.3,0.2,2-0.1v0.6c-0.8,0.3-1.4,0.4-2,0.4c-1.6,0-2.5-0.8-2.8-1.9c-0.1-0.4-0.3-2.3-0.4-3.6
		c-0.1-1-0.3-2.8-3.2-2.8h-1.4v7.4h1.8v0.5H79.6z M83.6,16.9h1.2c2.5,0,4.1-0.2,4.1-3.3c0-2.2-1-2.9-3.1-2.9h-2.2V16.9z"/>
	<path d="M96.4,25.4v-0.5h1.9V10.7h-1.5c-2.2,0-2.4,1.6-2.8,3.9h-0.6l0.3-4.4h11.7l0.2,4.4h-0.6c-0.3-2.2-1-3.9-3.4-3.9h-1v14.1h1.9
		v0.5H96.4z"/>
	<path d="M107,25.4v-0.5h1.8V10.7H107v-0.5h6.7c4.4,0,5,2.3,5,3.3c0,3-2.6,3.5-4.8,3.7v0c2.6,0.7,4.4,1.6,4.2,5.2
		c-0.1,1.1,0.1,2.1,0.6,2.3c0.4,0.3,1.3,0.2,2-0.1v0.6c-0.8,0.3-1.4,0.4-2,0.4c-1.6,0-2.5-0.8-2.8-1.9c-0.1-0.4-0.2-2.3-0.4-3.6
		c-0.1-1-0.3-2.8-3.2-2.8H111v7.4h1.8v0.5H107z M111,16.9h1.2c2.5,0,4.1-0.2,4.1-3.3c0-2.2-1-2.9-3.1-2.9H111V16.9z"/>
	<path d="M121.8,25.4v-0.5h1.8l4.9-14.9h0.9l4.7,14.9h1.6v0.5h-5.7v-0.5h1.8l-1.6-5h-4.3l-1.6,5h2v0.5H121.8z M130,19.2l-1.9-6.2h0
		l-2,6.2H130z"/>
	<polygon points="138.5,10.7 136.7,10.7 136.7,10.2 141.1,10.2 147.6,21.2 147.7,21.2 147.7,10.7 145.9,10.7 145.9,10.2 150.1,10.2 
		150.1,10.7 148.3,10.7 148.3,25.7 147.7,25.7 139.2,11.2 139.2,11.2 139.2,24.9 140.9,24.9 140.9,25.4 136.7,25.4 136.7,24.9 
		138.5,24.9 	"/>
	<path d="M153.7,10.7h-1.8v-0.5h6.1c4.3,0,7.1,2.9,7.1,7.5c0,2.6-1,4.6-2.4,6.1c-1.5,1.5-3.6,1.7-4.8,1.7h-6.1v-0.5h1.8V10.7z
		 M155.9,24.9h2.2c2.6,0,3.5-1.4,4-2.4c0.5-1,0.5-3,0.5-5.2c0-3.2-0.3-6.5-5-6.5h-1.7V24.9z"/>
</g>
<g>
	<path class="st1" d="M69,40.8v-0.4h1.3v-9.8H69v-0.4h4.3v0.4h-1.5v9.8h2.8c1.3,0,1.9-1.6,2.1-2.6H77l-0.2,2.9H69z"/>
	<polygon class="st1" points="81.9,40.8 77.7,40.8 77.7,40.4 79.1,40.4 79.1,30.6 77.7,30.6 77.7,30.2 81.9,30.2 81.9,30.6 
		80.6,30.6 80.6,40.4 81.9,40.4 	"/>
	<polygon class="st1" points="82.8,30.2 86.8,30.2 86.8,30.6 85.6,30.6 88.2,38.5 88.3,38.5 90.8,30.6 89.4,30.6 89.4,30.2 
		92.4,30.2 92.4,30.6 91.3,30.6 87.9,41 87.5,41 84,30.6 82.8,30.6 	"/>
	<path class="st1" d="M93.1,40.8v-0.4h1.2v-9.8h-1.2v-0.4h4.7c3,0,3.5,1.6,3.5,2.3c0,2.1-1.8,2.5-3.3,2.6v0c1.8,0.5,3,1.1,2.9,3.6
		c0,0.8,0.1,1.5,0.4,1.6c0.3,0.2,0.9,0.1,1.4-0.1v0.4c-0.5,0.2-1,0.3-1.4,0.3c-1.1,0-1.7-0.6-1.9-1.3c-0.1-0.3-0.2-1.6-0.3-2.5
		c-0.1-0.7-0.2-1.9-2.2-1.9h-0.9v5.1h1.2v0.4H93.1z M95.8,34.9h0.9c1.7,0,2.8-0.1,2.8-2.3c0-1.5-0.7-2-2.2-2h-1.5V34.9z"/>
	<path class="st1" d="M103.4,40.8v-0.4h1.4v-9.8h-1.4v-0.4h8v2.6h-0.3c-0.3-1.9-1.2-2.2-2.7-2.2h-2v4.5c1.6,0,2.1,0,2.3-1.7h0.3v4
		h-0.3c-0.1-1.7-0.8-1.9-2.3-1.9v4.9h1.9c2.1,0,2.8-0.3,3.2-2.6h0.4l-0.2,2.9H103.4z"/>
	<polygon class="st1" points="117.6,40.8 113.4,40.8 113.4,40.4 114.7,40.4 114.7,30.6 113.4,30.6 113.4,30.2 117.6,30.2 
		117.6,30.6 116.2,30.6 116.2,40.4 117.6,40.4 	"/>
	<path class="st1" d="M119.2,40.8v-0.4h1.2v-9.8h-1.2v-0.4h4.6c3,0,3.5,1.6,3.5,2.3c0,2.1-1.8,2.5-3.3,2.6v0c1.8,0.5,3,1.1,2.9,3.6
		c0,0.8,0.1,1.5,0.4,1.6c0.3,0.2,0.9,0.1,1.4-0.1v0.4c-0.5,0.2-1,0.3-1.4,0.3c-1.1,0-1.7-0.6-2-1.3c-0.1-0.3-0.2-1.6-0.3-2.5
		c-0.1-0.7-0.2-1.9-2.2-1.9H122v5.1h1.2v0.4H119.2z M122,34.9h0.8c1.7,0,2.8-0.1,2.8-2.3c0-1.5-0.7-2-2.2-2H122V34.9z"/>
	<path class="st1" d="M129.1,35.5c0-2.8,1.8-5.5,4.5-5.5c2.7,0,4.5,2.7,4.5,5.5c0,2.8-1.8,5.5-4.5,5.5
		C130.9,41,129.1,38.3,129.1,35.5 M136.3,35.5c0-3.3-0.6-5.1-2.7-5.1c-2.2,0-2.7,1.9-2.7,5.1c0,3.2,0.6,5.1,2.7,5.1
		C135.8,40.6,136.3,38.7,136.3,35.5"/>
	<path class="st1" d="M140,40.8h-0.2v-2.7h0.3c0.4,1.4,1.5,2.5,3,2.5c1.4,0,2.6-0.9,2.6-2.3c0-0.9-0.2-1.4-1.4-1.8
		c-0.6-0.2-3-1-3.3-1.2c-0.9-0.6-1.3-1.5-1.3-2.4c0-0.6,0.2-1.2,0.6-1.8c0.5-0.6,1.2-1.1,2.4-1.1c0.7,0,1.8,0.5,2.1,0.7l0.6-0.5h0.2
		v2.5h-0.3c-0.3-1.3-1.3-2.3-2.7-2.3c-1.1,0-2.2,0.7-2.2,1.9c0,2.6,6,0.9,6,5.2c0,2.2-1.4,3.5-3.4,3.5c-0.9,0-1.8-0.2-2.4-0.9
		L140,40.8z"/>
</g>
</svg>
